<svg width="100" height="100" viewBox="0 0 100 100" fill="none" xmlns="http://www.w3.org/2000/svg">
<g id="cookie-svgrepo-com 1" clip-path="url(#clip0_2_3)">
<g id="cookie">
<path id="outline" d="M99.995 49.5445L99.9918 49.3452C99.9765 48.0792 98.9794 47.0435 97.7151 46.9797C94.1478 46.7996 90.9986 44.6681 89.4967 41.4177C89.1981 40.7716 88.6278 40.2915 87.9405 40.1071C87.253 39.9227 86.5191 40.0534 85.9374 40.4637C84.3292 41.598 82.3577 42.2227 80.3866 42.223C78.7166 42.223 77.0635 41.7784 75.6059 40.9369C72.3785 39.0735 70.5118 35.4684 70.8505 31.7522C70.915 31.0434 70.6612 30.3424 70.1579 29.8393C69.6543 29.3356 68.9509 29.0829 68.2449 29.1464C67.9583 29.1726 67.6667 29.1858 67.3782 29.1858C63.9556 29.1858 60.7685 27.3483 59.0607 24.3905C57.1974 21.163 57.3835 17.1076 59.5346 14.0583C59.9449 13.4768 60.0759 12.743 59.8915 12.0554C59.7073 11.3679 59.2272 10.7976 58.5811 10.499C55.3321 8.99732 53.2012 5.84977 53.0201 2.28446C52.9558 1.02089 51.921 0.024461 50.656 0.00815365L50.4603 0.00503608C50.3073 0.00239813 50.1538 0 50.0001 0C22.43 0 0.000244141 22.43 0.000244141 50.0001C0.000244141 77.5703 22.43 100 50.0001 100C77.5703 100 100 77.5703 100 50.0001C100 49.8478 99.9976 49.6963 99.995 49.5445ZM14.9677 21.4669C16.1008 22.4506 16.7814 23.8873 16.7814 25.4468C16.7814 28.356 14.4147 30.7227 11.5055 30.7227C10.7513 30.7227 10.0182 30.5575 9.34457 30.2541C10.8811 27.1037 12.7725 24.1571 14.9677 21.4669ZM87.4762 75.2489C86.0529 74.2858 85.1443 72.6562 85.1443 70.8761C85.1443 67.9669 87.511 65.6002 90.4202 65.6002C91.0737 65.6002 91.7046 65.7204 92.2967 65.9465C91.048 69.2478 89.4245 72.3663 87.4762 75.2489ZM93.7545 61.3745C92.7792 61.032 91.7511 60.8404 90.7101 60.8099C90.6135 60.8071 90.5168 60.8037 90.4199 60.8037C90.29 60.8037 90.1617 60.8107 90.0326 60.8155C86.8326 60.9375 84.0109 62.5565 82.2509 64.9942C81.055 66.6504 80.3475 68.6816 80.3475 70.8759C80.3475 74.1831 81.9898 77.2199 84.5826 79.0758C82.3447 81.7334 79.802 84.1244 77.0168 86.2079C76.8196 86.3553 76.6247 86.5052 76.4252 86.6496C68.9881 92.0281 59.8588 95.2037 49.9996 95.2037C25.0746 95.2037 4.79627 74.9256 4.79627 50.0001C4.79627 46.0969 5.29628 42.3086 6.23107 38.6934C6.58192 37.3368 6.99224 36.0039 7.46276 34.6993C7.46563 34.6916 7.46803 34.6837 7.47091 34.6758C7.47427 34.6772 7.47786 34.6784 7.48146 34.6801C8.73856 35.2286 10.1045 35.519 11.5055 35.519C13.4938 35.519 15.3476 34.9374 16.9107 33.9391C19.7136 32.1487 21.5777 29.0124 21.5777 25.4468C21.5777 22.6609 20.4427 20.0781 18.5246 18.2191C18.4165 18.1143 18.3074 18.0107 18.1944 17.9107C26.044 10.1297 36.7224 5.19843 48.5313 4.81953C49.2884 8.35989 51.3524 11.4734 54.3124 13.553C52.3786 17.7486 52.552 22.7089 54.9072 26.7883C57.2504 30.8472 61.4488 33.4995 66.0746 33.9223C66.4969 38.5239 69.1272 42.7347 73.2076 45.0904C75.3932 46.3523 77.8758 47.0192 80.3866 47.019C82.5018 47.0188 84.5575 46.5641 86.4438 45.6895C88.5245 48.6495 91.6384 50.7128 95.1795 51.4695C95.0706 54.8789 94.5819 58.1943 93.7545 61.3745Z" fill="white"/>
</g>
<g id="circles">
<path id="Vector" d="M38.2996 43.9125C43.8535 43.9125 48.3718 39.3941 48.3718 33.8403C48.3718 31.4263 47.5176 29.2088 46.0964 27.4721C44.248 25.213 41.4398 23.7681 38.2996 23.7681C32.7458 23.7681 28.2275 28.2865 28.2275 33.8403C28.2275 36.3193 29.1294 38.59 30.6199 40.3467C32.4691 42.5259 35.2247 43.9125 38.2996 43.9125ZM38.2996 28.5644C41.2088 28.5644 43.5755 30.9311 43.5755 33.8403C43.5755 36.7495 41.2088 39.1162 38.2996 39.1162C35.3905 39.1162 33.0237 36.7495 33.0237 33.8403C33.0237 30.9311 35.3907 28.5644 38.2996 28.5644Z" fill="white"/>
<path id="Vector_2" d="M31.6429 80.1684C37.1967 80.1684 41.7151 75.6501 41.7151 70.0962C41.7151 67.6823 40.8608 65.4647 39.4397 63.728C37.5912 61.4689 34.7828 60.0241 31.6429 60.0241C26.0891 60.0241 21.5707 64.5424 21.5707 70.0962C21.5707 72.5752 22.4727 74.846 23.9631 76.6026C25.8121 78.7818 28.5678 80.1684 31.6429 80.1684ZM31.6429 64.8203C34.5521 64.8203 36.9188 67.1871 36.9188 70.0962C36.9188 73.0054 34.5521 75.3721 31.6429 75.3721C28.7337 75.3721 26.367 73.0054 26.367 70.0962C26.367 67.1871 28.7337 64.8203 31.6429 64.8203Z" fill="white"/>
<path id="Vector_3" d="M62.1587 74.3659C69.2991 74.3659 75.1086 68.5567 75.1086 61.416C75.1086 58.3077 74.0071 55.4523 72.1749 53.218C69.7981 50.3193 66.1911 48.466 62.1587 48.466C55.0182 48.466 49.2087 54.2753 49.2087 61.416C49.2087 64.5892 50.3579 67.4979 52.2594 69.7524C54.6369 72.5709 58.1914 74.3659 62.1587 74.3659ZM62.1587 53.2623C66.6547 53.2623 70.3123 56.9199 70.3123 61.416C70.3123 65.9118 66.6547 69.5696 62.1587 69.5696C57.6626 69.5696 54.005 65.9118 54.005 61.416C54.005 56.9199 57.6626 53.2623 62.1587 53.2623Z" fill="white"/>
</g>
</g>
<defs>
<clipPath id="clip0_2_3">
<rect width="100" height="100" fill="white"/>
</clipPath>
</defs>
</svg>
